<svg width="90" height="45" viewBox="0 0 230 50" fill="none" xmlns="http://www.w3.org/2000/svg">
    <path d="M158.633 10L165.594 40.0469L183.031 10H186.898L180.969 44.125H178.109L180.711 29.1484L183.5 14.3828L166.133 44.125H163.93L156.852 14.1484L154.438 29.2891L151.859 44.125H149L154.93 10H158.633Z" fill="white"/>
    <path d="M198.969 44.5938C196.938 44.5625 195.18 44 193.695 42.9062C192.211 41.7969 191.117 40.2969 190.414 38.4062C189.727 36.5 189.484 34.4453 189.688 32.2422L189.758 31.4453C189.977 29.1016 190.672 26.875 191.844 24.7656C193.016 22.6406 194.5 21.0234 196.297 19.9141C198.094 18.7891 200.016 18.25 202.062 18.2969C203.953 18.3281 205.547 18.8438 206.844 19.8438C208.156 20.8438 209.109 22.2344 209.703 24.0156C210.297 25.7969 210.484 27.7656 210.266 29.9219L210.078 31.6328H192.523L192.453 32.1953C192.219 33.8984 192.344 35.5312 192.828 37.0938C193.312 38.6406 194.102 39.875 195.195 40.7969C196.305 41.7031 197.633 42.1719 199.18 42.2031C200.68 42.25 202.031 41.9609 203.234 41.3359C204.438 40.7109 205.547 39.875 206.562 38.8281L208.203 40.1641C207.062 41.6328 205.703 42.75 204.125 43.5156C202.562 44.2656 200.844 44.625 198.969 44.5938ZM201.922 20.6875C199.891 20.6094 198.07 21.3281 196.461 22.8438C194.852 24.3594 193.641 26.4922 192.828 29.2422L207.547 29.2656L207.617 28.9141C207.898 26.6953 207.508 24.7891 206.445 23.1953C205.383 21.5859 203.875 20.75 201.922 20.6875Z" fill="white"/>
    <path d="M22.5703 37.0547H9.35156L6.58594 45H0.421875L13.3125 10.875H18.6328L31.5469 45H25.3594L22.5703 37.0547ZM11.0156 32.2734H20.9062L15.9609 18.1172L11.0156 32.2734Z" fill="#233B7E"/>
    <path d="M33.8203 32.1328C33.8203 28.2266 34.7266 25.0938 36.5391 22.7344C38.3516 20.3594 40.7812 19.1719 43.8281 19.1719C46.5156 19.1719 48.6875 20.1094 50.3438 21.9844V9H56.0391V45H50.8828L50.6016 42.375C48.8984 44.4375 46.625 45.4688 43.7812 45.4688C40.8125 45.4688 38.4062 44.2734 36.5625 41.8828C34.7344 39.4922 33.8203 36.2422 33.8203 32.1328ZM39.5156 32.625C39.5156 35.2031 40.0078 37.2188 40.9922 38.6719C41.9922 40.1094 43.4062 40.8281 45.2344 40.8281C47.5625 40.8281 49.2656 39.7891 50.3438 37.7109V26.8828C49.2969 24.8516 47.6094 23.8359 45.2812 23.8359C43.4375 23.8359 42.0156 24.5703 41.0156 26.0391C40.0156 27.4922 39.5156 29.6875 39.5156 32.625Z" fill="#233B7E"/>
    <path d="M70.9219 37.7812L76.2891 19.6406H82.1719L73.3828 45H68.4375L59.5781 19.6406H65.4844L70.9219 37.7812Z" fill="#233B7E"/>
    <path d="M91.8047 45H86.1094V19.6406H91.8047V45ZM85.7578 13.0547C85.7578 12.1797 86.0312 11.4531 86.5781 10.875C87.1406 10.2969 87.9375 10.0078 88.9688 10.0078C90 10.0078 90.7969 10.2969 91.3594 10.875C91.9219 11.4531 92.2031 12.1797 92.2031 13.0547C92.2031 13.9141 91.9219 14.6328 91.3594 15.2109C90.7969 15.7734 90 16.0547 88.9688 16.0547C87.9375 16.0547 87.1406 15.7734 86.5781 15.2109C86.0312 14.6328 85.7578 13.9141 85.7578 13.0547Z" fill="#233B7E"/>
    <path d="M112.242 38.1094C112.242 37.0938 111.82 36.3203 110.977 35.7891C110.148 35.2578 108.766 34.7891 106.828 34.3828C104.891 33.9766 103.273 33.4609 101.977 32.8359C99.1328 31.4609 97.7109 29.4688 97.7109 26.8594C97.7109 24.6719 98.6328 22.8438 100.477 21.375C102.32 19.9062 104.664 19.1719 107.508 19.1719C110.539 19.1719 112.984 19.9219 114.844 21.4219C116.719 22.9219 117.656 24.8672 117.656 27.2578H111.961C111.961 26.1641 111.555 25.2578 110.742 24.5391C109.93 23.8047 108.852 23.4375 107.508 23.4375C106.258 23.4375 105.234 23.7266 104.438 24.3047C103.656 24.8828 103.266 25.6562 103.266 26.625C103.266 27.5 103.633 28.1797 104.367 28.6641C105.102 29.1484 106.586 29.6406 108.82 30.1406C111.055 30.625 112.805 31.2109 114.07 31.8984C115.352 32.5703 116.297 33.3828 116.906 34.3359C117.531 35.2891 117.844 36.4453 117.844 37.8047C117.844 40.0859 116.898 41.9375 115.008 43.3594C113.117 44.7656 110.641 45.4688 107.578 45.4688C105.5 45.4688 103.648 45.0938 102.023 44.3438C100.398 43.5938 99.1328 42.5625 98.2266 41.25C97.3203 39.9375 96.8672 38.5234 96.8672 37.0078H102.398C102.477 38.3516 102.984 39.3906 103.922 40.125C104.859 40.8438 106.102 41.2031 107.648 41.2031C109.148 41.2031 110.289 40.9219 111.07 40.3594C111.852 39.7812 112.242 39.0312 112.242 38.1094Z" fill="#233B7E"/>
    <path d="M133.992 45.4688C130.383 45.4688 127.453 44.3359 125.203 42.0703C122.969 39.7891 121.852 36.7578 121.852 32.9766V32.2734C121.852 29.7422 122.336 27.4844 123.305 25.5C124.289 23.5 125.664 21.9453 127.43 20.8359C129.195 19.7266 131.164 19.1719 133.336 19.1719C136.789 19.1719 139.453 20.2734 141.328 22.4766C143.219 24.6797 144.164 27.7969 144.164 31.8281V34.125H127.594C127.766 36.2188 128.461 37.875 129.68 39.0938C130.914 40.3125 132.461 40.9219 134.32 40.9219C136.93 40.9219 139.055 39.8672 140.695 37.7578L143.766 40.6875C142.75 42.2031 141.391 43.3828 139.688 44.2266C138 45.0547 136.102 45.4688 133.992 45.4688ZM133.312 23.7422C131.75 23.7422 130.484 24.2891 129.516 25.3828C128.562 26.4766 127.953 28 127.688 29.9531H138.539V29.5312C138.414 27.625 137.906 26.1875 137.016 25.2188C136.125 24.2344 134.891 23.7422 133.312 23.7422Z" fill="#233B7E"/>
    <path d="M77.2135 12.1007C77.5167 11.3748 77.6882 10.7425 77.5966 10.6885C77.5049 10.6345 77.1847 11.1791 76.8815 11.9051C76.5782 12.631 76.4067 13.2632 76.4983 13.3173C76.59 13.3713 76.9102 12.8266 77.2135 12.1007Z" fill="#E0E0E0"/>
    <path d="M92.5973 21.1748C92.9006 20.4489 93.0959 19.8307 93.0336 19.794C92.9713 19.7573 92.675 20.316 92.3717 21.0419C92.0685 21.7678 91.8731 22.386 91.9354 22.4227C91.9977 22.4594 92.294 21.9007 92.5973 21.1748Z" fill="#E0E0E0"/>
    <path d="M84.3305 17.5051L83.7589 16.9445L82.1856 19.2074L82.7572 19.7679L84.3305 17.5051Z" fill="#F55F44"/>
    <path opacity="0.05" d="M83.016 19.9484L83.8279 20.1752L84.3935 17.3185L83.5816 17.0918L83.016 19.9484Z" fill="black"/>
    <path d="M83.1064 19.9737L83.8279 20.1752L84.3935 17.3185L83.6719 17.117L83.1064 19.9737Z" fill="#F55F44"/>
    <path d="M77.624 10.6228L76.4709 13.383L91.9092 22.4806L93.0624 19.7204L77.624 10.6228Z" fill="url(#paint0_linear)"/>
    <path d="M91.9367 22.4149C91.6345 22.2427 76.277 13.1868 76.4983 13.3173C77.3507 11.7721 77.5966 10.6885 77.5966 10.6885L93.0349 19.7861C93.0349 19.7861 92.4927 20.9162 91.9367 22.4149Z" fill="#F5F5F5"/>
    <path opacity="0.05" d="M85.6201 15.4166L84.3474 14.6667L83.2492 17.2954L84.5219 18.0454L85.6201 15.4166Z" fill="black"/>
    <path d="M85.5647 15.384L84.4027 14.6993L83.3045 17.328L84.4665 18.0128L85.5647 15.384Z" fill="#F55F44"/>
    <path opacity="0.05" d="M85.3434 15.2536L84.5687 14.7971L83.4705 17.4259L84.2452 17.8824L85.3434 15.2536Z" fill="black"/>
    <path d="M85.2881 15.221L84.6241 14.8297L83.5258 17.4585L84.1899 17.8498L85.2881 15.221Z" fill="#F55F44"/>
    <path d="M85.1986 23.6995C85.2555 23.6995 85.3016 23.6447 85.3016 23.5772C85.3016 23.5096 85.2555 23.4549 85.1986 23.4549C85.1418 23.4549 85.0957 23.5096 85.0957 23.5772C85.0957 23.6447 85.1418 23.6995 85.1986 23.6995Z" fill="#DBDBDB"/>
    <g opacity="0.5">
    <path opacity="0.5" d="M77.1404 20.152H77.0348V20.8627H77.1404V20.152Z" fill="#47E6B1"/>
    <path opacity="0.5" d="M77.3868 20.5701V20.4446H76.7883V20.5701H77.3868Z" fill="#47E6B1"/>
    </g>
    <g opacity="0.5">
    <path opacity="0.5" d="M103.754 11.2884H103.648V11.9992H103.754V11.2884Z" fill="#47E6B1"/>
    <path opacity="0.5" d="M104 11.7065V11.5811H103.402V11.7065H104Z" fill="#47E6B1"/>
    </g>
    <g opacity="0.5">
    <path opacity="0.5" d="M77.774 2.46674H77.6684V3.17749H77.774V2.46674Z" fill="#47E6B1"/>
    <path opacity="0.5" d="M78.0204 2.88483V2.7594H77.422V2.88483H78.0204Z" fill="#47E6B1"/>
    </g>
    <g opacity="0.5">
    <path opacity="0.5" d="M100.585 1.3797H100.48V2.09045H100.585V1.3797Z" fill="#47E6B1"/>
    <path opacity="0.5" d="M100.832 1.79779V1.67236H100.233V1.79779H100.832Z" fill="#47E6B1"/>
    </g>
    <path opacity="0.5" d="M76.4326 10.5968C76.4035 10.5817 76.3801 10.5545 76.3668 10.5202C76.3535 10.486 76.3513 10.4472 76.3606 10.4111C76.3621 10.4056 76.363 10.3999 76.3634 10.3941V10.3941C76.3642 10.3775 76.3606 10.3611 76.353 10.3473C76.3453 10.3334 76.3342 10.3228 76.3211 10.3171C76.308 10.3114 76.2937 10.3108 76.2804 10.3155C76.267 10.3201 76.2552 10.3298 76.2468 10.343V10.343C76.244 10.3477 76.2416 10.3528 76.2397 10.3581C76.227 10.3927 76.2041 10.4205 76.1752 10.4363C76.1464 10.4521 76.1137 10.4547 76.0833 10.4437C76.0787 10.442 76.0739 10.4408 76.069 10.4404V10.4404C76.0551 10.4394 76.0413 10.4437 76.0296 10.4528C76.0179 10.4618 76.009 10.4751 76.0042 10.4906C75.9994 10.5062 75.9989 10.5231 76.0028 10.539C76.0067 10.5549 76.0149 10.5688 76.026 10.5788V10.5788C76.0299 10.5822 76.0342 10.5851 76.0387 10.5873C76.0678 10.6024 76.0913 10.6296 76.1046 10.6639C76.1178 10.6981 76.1201 10.7369 76.1108 10.773C76.1093 10.7785 76.1084 10.7842 76.108 10.79V10.79C76.1071 10.8066 76.1108 10.823 76.1184 10.8368C76.126 10.8507 76.1372 10.8613 76.1503 10.867C76.1634 10.8727 76.1776 10.8733 76.191 10.8686C76.2044 10.864 76.2161 10.8543 76.2245 10.8411V10.8411C76.2274 10.8364 76.2298 10.8313 76.2317 10.826C76.2444 10.7914 76.2673 10.7636 76.2961 10.7478C76.325 10.732 76.3577 10.7294 76.388 10.7404C76.3927 10.7421 76.3975 10.7433 76.4024 10.7437V10.7437C76.4163 10.7447 76.4301 10.7404 76.4418 10.7313C76.4535 10.7223 76.4624 10.709 76.4672 10.6935C76.472 10.6779 76.4725 10.661 76.4686 10.6451C76.4646 10.6292 76.4565 10.6153 76.4454 10.6053C76.4414 10.6019 76.4372 10.599 76.4326 10.5968V10.5968Z" fill="#4D8AF0"/>
    <path opacity="0.5" d="M82.4875 2.36039C82.4584 2.34533 82.435 2.3181 82.4217 2.28386C82.4084 2.24962 82.4062 2.21077 82.4154 2.17471C82.4169 2.16918 82.4179 2.16347 82.4182 2.15767V2.15767C82.4191 2.14115 82.4154 2.12475 82.4078 2.11088C82.4002 2.09702 82.389 2.08645 82.3759 2.08072C82.3629 2.07499 82.3486 2.07441 82.3352 2.07908C82.3218 2.08374 82.3101 2.0934 82.3017 2.10662V2.10662C82.2988 2.11131 82.2964 2.11638 82.2945 2.12174C82.2818 2.15631 82.2589 2.18413 82.2301 2.19992C82.2012 2.2157 82.1685 2.21835 82.1382 2.20735C82.1335 2.20557 82.1287 2.20445 82.1238 2.20401V2.20401C82.1099 2.203 82.0961 2.20734 82.0844 2.21639C82.0728 2.22544 82.0639 2.23871 82.059 2.25424C82.0542 2.26977 82.0537 2.28673 82.0577 2.30261C82.0616 2.31849 82.0697 2.33245 82.0808 2.34241V2.34241C82.0848 2.34584 82.0891 2.3487 82.0936 2.35094C82.1227 2.36599 82.1461 2.39323 82.1594 2.42747C82.1727 2.46171 82.1749 2.50055 82.1657 2.53661C82.1642 2.54214 82.1632 2.54786 82.1628 2.55365V2.55365C82.162 2.57017 82.1656 2.58658 82.1733 2.60044C82.1809 2.6143 82.1921 2.62488 82.2051 2.63061C82.2182 2.63634 82.2325 2.63691 82.2459 2.63225C82.2592 2.62758 82.271 2.61793 82.2794 2.60471C82.2823 2.60002 82.2847 2.59494 82.2866 2.58958C82.2992 2.55502 82.3222 2.52719 82.351 2.51141C82.3798 2.49562 82.4125 2.49298 82.4429 2.50398C82.4475 2.50576 82.4524 2.50688 82.4572 2.50732V2.50732C82.4711 2.50832 82.485 2.50398 82.4966 2.49494C82.5083 2.48589 82.5172 2.47262 82.522 2.45709C82.5269 2.44156 82.5273 2.4246 82.5234 2.40871C82.5195 2.39283 82.5114 2.37888 82.5002 2.36891V2.36891C82.4963 2.36549 82.492 2.36262 82.4875 2.36039V2.36039Z" fill="#4D8AF0"/>
    <path opacity="0.5" d="M89.8801 23.7248C89.8509 23.7098 89.8275 23.6825 89.8142 23.6483C89.8009 23.6141 89.7987 23.5752 89.808 23.5392C89.8095 23.5336 89.8104 23.5279 89.8108 23.5221V23.5221C89.8116 23.5056 89.808 23.4892 89.8004 23.4753C89.7927 23.4615 89.7816 23.4509 89.7685 23.4452C89.7554 23.4394 89.7411 23.4389 89.7278 23.4435C89.7144 23.4482 89.7026 23.4578 89.6942 23.4711C89.6914 23.4757 89.689 23.4808 89.6871 23.4862C89.6744 23.5207 89.6515 23.5486 89.6226 23.5644C89.5938 23.5801 89.5611 23.5828 89.5307 23.5718C89.5261 23.57 89.5213 23.5689 89.5164 23.5684V23.5684C89.5025 23.5674 89.4887 23.5718 89.477 23.5808C89.4653 23.5899 89.4564 23.6032 89.4516 23.6187C89.4468 23.6342 89.4463 23.6512 89.4502 23.6671C89.4541 23.6829 89.4623 23.6969 89.4734 23.7069C89.4773 23.7103 89.4816 23.7131 89.4861 23.7154C89.5152 23.7304 89.5387 23.7577 89.552 23.7919C89.5652 23.8261 89.5675 23.865 89.5582 23.9011C89.5567 23.9066 89.5558 23.9123 89.5554 23.9181V23.9181C89.5546 23.9346 89.5582 23.951 89.5658 23.9649C89.5734 23.9787 89.5846 23.9893 89.5977 23.9951C89.6108 24.0008 89.6251 24.0014 89.6384 23.9967C89.6518 23.992 89.6635 23.9824 89.6719 23.9692V23.9692C89.6748 23.9645 89.6772 23.9594 89.6791 23.954C89.6918 23.9195 89.7147 23.8916 89.7436 23.8759C89.7724 23.8601 89.8051 23.8574 89.8355 23.8684C89.8401 23.8702 89.8449 23.8713 89.8498 23.8718V23.8718C89.8637 23.8728 89.8775 23.8684 89.8892 23.8594C89.9009 23.8503 89.9098 23.8371 89.9146 23.8215C89.9194 23.806 89.9199 23.789 89.916 23.7732C89.912 23.7573 89.9039 23.7433 89.8928 23.7334V23.7334C89.8888 23.7299 89.8846 23.7271 89.8801 23.7248V23.7248Z" fill="#4D8AF0"/>
    <path opacity="0.5" d="M102.733 18.8141C102.849 18.8141 102.944 18.7018 102.944 18.5632C102.944 18.4247 102.849 18.3124 102.733 18.3124C102.616 18.3124 102.521 18.4247 102.521 18.5632C102.521 18.7018 102.616 18.8141 102.733 18.8141Z" fill="#F55F44"/>
    <path opacity="0.5" d="M98.0859 20.4028C98.2026 20.4028 98.2972 20.2905 98.2972 20.152C98.2972 20.0134 98.2026 19.9011 98.0859 19.9011C97.9693 19.9011 97.8747 20.0134 97.8747 20.152C97.8747 20.2905 97.9693 20.4028 98.0859 20.4028Z" fill="#4D8AF0"/>
    <path opacity="0.5" d="M79.6398 22.8696C79.7564 22.8696 79.851 22.7573 79.851 22.6187C79.851 22.4802 79.7564 22.3679 79.6398 22.3679C79.5231 22.3679 79.4285 22.4802 79.4285 22.6187C79.4285 22.7573 79.5231 22.8696 79.6398 22.8696Z" fill="#47E6B1"/>
    <path opacity="0.5" d="M90.4822 0.501709C90.5988 0.501709 90.6934 0.389398 90.6934 0.250854C90.6934 0.112311 90.5988 0 90.4822 0C90.3655 0 90.271 0.112311 90.271 0.250854C90.271 0.389398 90.3655 0.501709 90.4822 0.501709Z" fill="#F55F44"/>
    <path d="M83.2128 14.9467L82.368 16.4519C82.368 16.4519 82.6496 17.9988 88.8805 17.957C95.1113 17.9152 95.6042 16.4519 95.6042 16.4519L94.4425 14.445L90.887 11.5602L83.2128 14.9467Z" fill="#233B7E"/>
    <path opacity="0.15" d="M83.2128 14.9467L82.368 16.4519C82.368 16.4519 82.6496 17.9988 88.8805 17.957C95.1113 17.9152 95.6042 16.4519 95.6042 16.4519L94.4425 14.445L90.887 11.5602L83.2128 14.9467Z" fill="black"/>
    <path d="M101.184 9.36523L90.0949 15.1767L76.5771 9.36523L88.9684 2.67578L95.0511 6.00671L95.269 6.12628L101.184 9.36523Z" fill="#233B7E"/>
    <path opacity="0.15" d="M101.184 9.36523L90.0949 15.1767L76.5771 9.36523L88.9684 2.67578L95.0511 6.00671L95.269 6.12628L101.184 9.36523Z" fill="black"/>
    <path d="M95.4985 10.7583L95.2873 10.7734L95.0511 6.00671L95.269 6.12628L95.4985 10.7583Z" fill="#F5F5F5"/>
    <path d="M83.3536 9.34433L82.368 16.4519C82.368 16.4519 89.4437 13.7343 95.6042 16.4519L94.6889 8.92624C94.6889 8.92624 86.4163 7.71378 83.3536 9.34433Z" fill="#233B7E"/>
    <path d="M95.481 12.2082C96.0448 12.2082 96.5018 11.8339 96.5018 11.3721C96.5018 10.9103 96.0448 10.5359 95.481 10.5359C94.9171 10.5359 94.4601 10.9103 94.4601 11.3721C94.4601 11.8339 94.9171 12.2082 95.481 12.2082Z" fill="#F5F5F5"/>
    <defs>
    <linearGradient id="paint0_linear" x1="84.1901" y1="17.9318" x2="85.6946" y2="15.3786" gradientUnits="userSpaceOnUse">
    <stop stop-color="#808080" stop-opacity="0.25"/>
    <stop offset="0.53514" stop-color="#808080" stop-opacity="0.12"/>
    <stop offset="1" stop-color="#808080" stop-opacity="0.1"/>
    </linearGradient>
    </defs>
    </svg>